<?xml version="1.0" encoding="UTF-8" standalone="no"?>
<!DOCTYPE svg PUBLIC "-//W3C//DTD SVG 1.1//EN" "http://www.w3.org/Graphics/SVG/1.1/DTD/svg11.dtd">
<svg width="100%" height="100%" viewBox="0 0 1056 1056" version="1.1" xmlns="http://www.w3.org/2000/svg" xmlns:xlink="http://www.w3.org/1999/xlink" xml:space="preserve" xmlns:serif="http://www.serif.com/" style="fill-rule:evenodd;clip-rule:evenodd;stroke-linejoin:round;stroke-miterlimit:2;">
    <g transform="matrix(1,0,0,1,-72.8489,-72.678)">
        <path d="M442.455,169.904C448.016,179.536 453.671,193.264 459.42,211.088C465.169,228.912 471.631,250.005 478.805,274.367C485.536,297.419 494.445,325.87 505.53,359.72C516.616,393.569 531.453,434.729 550.04,483.199L522.906,498.865C489.952,458.063 461.691,424.576 438.123,398.402C414.554,372.229 394.471,350.465 377.873,333.11C362.695,317.128 348.106,301.353 334.107,285.787C320.108,270.22 310.531,257.973 305.377,249.046C294.933,230.957 292.711,211.645 298.709,191.111C304.708,170.576 317.104,154.883 335.898,144.033C354.457,133.318 374.246,130.428 395.263,135.365C416.281,140.302 432.012,151.815 442.455,169.904Z" style="fill:rgb(37,42,54);fill-opacity:0.89;fill-rule:nonzero;"/>
        <path d="M248.73,303.834C258.362,309.395 270.123,318.457 284.014,331.018C297.905,343.58 314.047,358.616 332.441,376.127C349.797,392.725 371.737,412.91 398.263,436.682C424.788,460.454 458.217,488.681 498.549,521.364L482.883,548.497C433.943,529.639 392.725,514.769 359.227,503.886C325.73,493.004 297.455,484.197 274.403,477.466C253.267,471.214 232.746,464.848 212.839,458.366C192.932,451.885 178.515,446.067 169.588,440.913C151.499,430.469 139.918,414.856 134.846,394.073C129.773,373.29 132.663,353.502 143.513,334.708C154.228,316.149 169.921,303.752 190.591,297.519C211.261,291.285 230.641,293.39 248.73,303.834Z" style="fill:rgb(37,42,54);fill-opacity:0.78;fill-rule:nonzero;"/>
        <path d="M148.533,520.858C159.655,520.858 174.371,522.824 192.681,526.758C210.992,530.691 232.49,535.642 257.175,541.61C280.504,547.306 309.598,553.817 344.455,561.141C379.313,568.465 422.377,576.196 473.646,584.334L473.646,615.666C421.834,623.804 378.703,631.535 344.252,638.859C309.801,646.183 280.911,652.694 257.582,658.39C236.152,663.544 215.196,668.292 194.716,672.632C174.235,676.972 158.841,679.142 148.533,679.142C127.645,679.142 109.809,671.411 95.025,655.949C80.241,640.487 72.849,621.905 72.849,600.203C72.849,578.773 80.241,560.192 95.025,544.458C109.809,528.725 127.645,520.858 148.533,520.858Z" style="fill:rgb(37,42,54);fill-opacity:0.67;fill-rule:nonzero;"/>
        <path d="M169.803,758.934C179.435,753.373 193.163,747.718 210.987,741.969C228.811,736.221 249.904,729.759 274.266,722.585C297.318,715.854 325.769,706.945 359.619,695.859C393.469,684.773 434.629,669.937 483.098,651.35L498.764,678.483C457.963,711.437 424.475,739.698 398.302,763.267C372.129,786.835 350.364,806.918 333.009,823.516C317.027,838.695 301.253,853.284 285.686,867.283C270.12,881.282 257.873,890.858 248.946,896.013C230.856,906.456 211.545,908.679 191.01,902.68C170.476,896.682 154.783,884.285 143.932,865.491C133.217,846.932 130.328,827.144 135.265,806.126C140.201,785.109 151.714,769.378 169.803,758.934Z" style="fill:rgb(37,42,54);fill-opacity:0.56;fill-rule:nonzero;"/>
        <path d="M303.734,952.659C309.295,943.028 318.356,931.266 330.918,917.375C343.479,903.485 358.516,887.342 376.027,868.948C392.625,851.593 412.81,829.653 436.581,803.127C460.353,776.601 488.58,743.172 521.263,702.841L548.397,718.506C529.538,767.446 514.668,808.665 503.786,842.162C492.903,875.66 484.096,903.934 477.365,926.986C471.114,948.122 464.747,968.644 458.266,988.551C451.784,1008.46 445.966,1022.88 440.812,1031.8C430.368,1049.89 414.755,1061.47 393.972,1066.54C373.19,1071.62 353.401,1068.73 334.607,1057.88C316.048,1047.16 303.652,1031.47 297.418,1010.8C291.185,990.128 293.29,970.749 303.734,952.659Z" style="fill:rgb(37,42,54);fill-opacity:0.44;fill-rule:nonzero;"/>
        <path d="M520.757,1052.86C520.757,1041.74 522.724,1027.02 526.657,1008.71C530.591,990.398 535.541,968.9 541.509,944.214C547.206,920.885 553.716,891.792 561.04,856.934C568.365,822.076 576.096,779.013 584.234,727.743L615.565,727.743C623.703,779.555 631.434,822.687 638.759,857.138C646.083,891.588 652.593,920.478 658.29,943.807C663.444,965.238 668.191,986.193 672.531,1006.67C676.872,1027.15 679.042,1042.55 679.042,1052.86C679.042,1073.75 671.311,1091.58 655.848,1106.36C640.386,1121.15 621.804,1128.54 600.103,1128.54C578.673,1128.54 560.091,1121.15 544.357,1106.36C528.624,1091.58 520.757,1073.75 520.757,1052.86Z" style="fill:rgb(37,42,54);fill-opacity:0.33;fill-rule:nonzero;"/>
        <path d="M757.779,1031.45C752.218,1021.82 746.564,1008.09 740.815,990.268C735.066,972.444 728.604,951.351 721.43,926.989C714.699,903.937 705.79,875.486 694.704,841.636C683.618,807.787 668.782,766.627 650.195,718.157L677.329,702.491C710.282,743.293 738.543,776.78 762.112,802.954C785.68,829.127 805.763,850.891 822.361,868.246C837.54,884.228 852.129,900.003 866.128,915.569C880.127,931.136 889.704,943.383 894.858,952.31C905.302,970.399 907.524,989.711 901.526,1010.25C895.527,1030.78 883.131,1046.47 864.337,1057.32C845.778,1068.04 825.989,1070.93 804.972,1065.99C783.954,1061.05 768.223,1049.54 757.779,1031.45Z" style="fill:rgb(37,42,54);fill-opacity:0.22;fill-rule:nonzero;"/>
        <path d="M951.505,897.522C941.873,891.961 930.111,882.899 916.221,870.338C902.33,857.776 886.188,842.74 867.793,825.229C850.438,808.631 828.498,788.446 801.972,764.674C775.446,740.902 742.018,712.675 701.686,679.992L717.352,652.859C766.291,671.717 807.51,686.587 841.007,697.47C874.505,708.352 902.78,717.159 925.831,723.89C946.967,730.142 967.489,736.508 987.396,742.99C1007.3,749.471 1021.72,755.289 1030.65,760.443C1048.74,770.887 1060.32,786.5 1065.39,807.283C1070.46,828.066 1067.57,847.854 1056.72,866.648C1046.01,885.207 1030.31,897.604 1009.64,903.837C988.974,910.071 969.594,907.966 951.505,897.522Z" style="fill:rgb(37,42,54);fill-opacity:0.11;fill-rule:nonzero;"/>
        <path d="M679.478,148.499C679.478,159.621 677.511,174.337 673.577,192.648C669.644,210.958 664.693,232.456 658.726,257.142C653.029,280.471 646.519,309.564 639.194,344.422C631.87,379.28 624.139,422.343 616.001,473.613L584.67,473.613C576.532,421.801 568.8,378.669 561.476,344.218C554.152,309.768 547.642,280.878 541.945,257.549C536.791,236.118 532.044,215.163 527.703,194.682C523.363,174.202 521.193,158.807 521.193,148.499C521.193,127.611 528.924,109.776 544.386,94.992C559.849,80.207 578.43,72.815 600.132,72.815C621.562,72.815 640.144,80.207 655.877,94.992C671.611,109.776 679.478,127.611 679.478,148.499Z" style="fill:rgb(249,66,58);fill-rule:nonzero;"/>
        <g transform="matrix(1.0723,0,0,1.0723,-37.3213,-44.4138)">
            <circle cx="594.617" cy="600.966" r="73.759" style="fill:rgb(249,66,58);"/>
        </g>
    </g>
</svg>
